<?xml version="1.0" standalone="no"?><!DOCTYPE svg PUBLIC "-//W3C//DTD SVG 1.1//EN" "http://www.w3.org/Graphics/SVG/1.1/DTD/svg11.dtd">
<svg xmlns:xlink="http://www.w3.org/1999/xlink"
    style=""
    class="icon"
    height="200"
    p-id="582"
    t="1499251212218"
    version="1.1"
    viewBox="0 0 1024 1024"
    width="200"
    xmlns="http://www.w3.org/2000/svg">
    <defs>
        <style type="text/css"></style>
    </defs>
    <path
        d="M719.872 104.96H377.856c-25.6 0-46.08 20.992-46.08 46.08v722.432c0 25.6 20.992 46.08 46.08 46.08h342.016c25.6 0 46.08-20.992 46.08-46.08V151.04c0-25.088-20.48-46.08-46.08-46.08z m20.992 721.92h-384V196.096h384.512v630.784h-0.512z"
        fill="#13227a"
        p-id="583"></path>
    <path
        d="M396.8 148.992m-14.336 0a14.336 14.336 0 1 0 28.672 0 14.336 14.336 0 1 0-28.672 0Z"
        fill="#13227a"
        p-id="584"></path>
    <path
        d="M597.504 140.288h-81.92c-4.096 0-7.168 3.072-7.168 7.168s3.072 7.168 7.168 7.168h81.92c4.096 0 7.168-3.072 7.168-7.168s-3.072-7.168-7.168-7.168zM568.32 163.328h-24.064c-4.096 0-7.168 3.072-7.168 7.168s3.072 7.168 7.168 7.168h24.064c4.096 0 7.168-3.072 7.168-7.168s-3.072-7.168-7.168-7.168z"
        fill="#13227a"
        p-id="585"></path>
    <path
        d="M548.864 624.64c23.04 0 41.984-18.944 41.984-41.984V501.76c0-23.04-18.944-41.984-41.984-41.984S506.88 478.72 506.88 501.76v81.408c0 23.04 18.944 41.472 41.984 41.472z"
        fill="#13227a"
        p-id="586"></path>
    <path
        d="M614.912 576c-5.632 0-10.24 4.608-10.24 10.24 0 30.72-25.088 55.808-55.808 55.808s-55.808-25.088-55.808-55.808c0-5.632-4.608-10.24-10.24-10.24s-10.24 4.608-10.24 10.24c0 38.912 28.672 70.656 66.048 75.776v23.552c0 5.632 4.608 10.24 10.24 10.24s10.24-4.608 10.24-10.24v-23.552c37.376-5.12 66.56-36.864 66.56-75.776 0-5.632-4.608-10.24-10.752-10.24z"
        fill="#13227a"
        p-id="587"></path>
    <path
        d="M709.12 515.584h-1.024c-0.512-0.512-0.512 0-1.024-0.512-2.56-1.024-3.072-7.168-2.56-10.24v-29.696c0-3.584-2.56-6.656-5.632-7.68-36.864-9.216-62.464-41.984-62.464-79.36 0-45.056 37.376-81.92 82.944-81.92h87.04c45.568 0 82.944 36.864 82.944 81.92s-37.376 81.92-82.944 81.92h-47.104c-2.048 0-4.096 1.024-5.632 2.56l-2.048 2.048c-9.216 9.216-31.232 32.256-37.888 38.912-1.536 1.024-3.584 2.048-4.608 2.048z"
        fill="#13227a"
        p-id="588"></path>
    <path
        d="M805.888 314.368c41.472 0 75.264 33.28 75.264 74.24s-33.792 74.24-75.264 74.24h-47.104c-4.096 0-8.192 1.536-11.264 4.608-6.144 6.144-25.6 26.624-35.328 36.352v-28.672c0-7.168-4.608-13.312-11.776-14.848-33.28-8.192-56.832-37.888-56.832-71.68 0-40.96 33.792-74.24 75.264-74.24h87.04m0-15.36h-87.04c-50.176 0-90.624 39.936-90.624 89.6 0 41.984 29.184 76.8 68.608 86.528v28.672s-2.048 15.36 7.68 18.432c0 0 1.536 1.024 4.608 1.024 2.56 0 6.144-1.024 10.24-5.12 6.656-7.168 32.768-33.28 39.424-40.96h47.104c50.176 0 90.624-39.936 90.624-89.6 0-48.64-40.448-88.576-90.624-88.576z"
        fill="#13227a"
        p-id="589"></path>
    <path
        d="M126.976 553.984c0-35.328 29.184-64 65.024-64h47.104c35.84 0 65.024 28.672 65.024 64 0 30.208-20.992 55.296-49.152 62.464v20.48s1.536 10.752-5.632 13.312c0 0-5.12 3.072-10.752-3.072-5.12-5.12-23.552-24.064-28.672-29.184h-18.432c-35.84 0.512-64.512-28.672-64.512-64zM828.928 382.976h-133.12c-4.096 0-7.68-3.584-7.68-7.68s3.584-7.68 7.68-7.68h133.12c4.096 0 7.68 3.584 7.68 7.68 0 4.608-3.072 7.68-7.68 7.68z"
        fill="#13227a"
        p-id="590"></path>
</svg>